<mxfile host="65bd71144e">
    <diagram id="PjtSoANb6BwzAm0Dmw4X" name="Page-1">
        <mxGraphModel dx="1873" dy="2134" grid="1" gridSize="10" guides="1" tooltips="1" connect="1" arrows="1" fold="1" page="1" pageScale="1" pageWidth="850" pageHeight="1100" math="0" shadow="0">
            <root>
                <mxCell id="0"/>
                <mxCell id="1" parent="0"/>
                <mxCell id="2" value="IDLE" style="ellipse;whiteSpace=wrap;html=1;aspect=fixed;" parent="1" vertex="1">
                    <mxGeometry x="390" y="550" width="80" height="80" as="geometry"/>
                </mxCell>
                <mxCell id="3" value="W_WAIT" style="ellipse;whiteSpace=wrap;html=1;aspect=fixed;" parent="1" vertex="1">
                    <mxGeometry x="710" y="550" width="80" height="80" as="geometry"/>
                </mxCell>
                <mxCell id="4" value="" style="endArrow=classic;html=1;exitX=1;exitY=0.5;exitDx=0;exitDy=0;entryX=0;entryY=0.5;entryDx=0;entryDy=0;" parent="1" source="2" target="3" edge="1">
                    <mxGeometry width="50" height="50" relative="1" as="geometry">
                        <mxPoint x="400" y="790" as="sourcePoint"/>
                        <mxPoint x="450" y="740" as="targetPoint"/>
                    </mxGeometry>
                </mxCell>
                <mxCell id="5" value="AW.fire" style="edgeLabel;html=1;align=center;verticalAlign=middle;resizable=0;points=[];" parent="4" vertex="1" connectable="0">
                    <mxGeometry x="-0.0917" y="1" relative="1" as="geometry">
                        <mxPoint as="offset"/>
                    </mxGeometry>
                </mxCell>
                <mxCell id="6" value="" style="endArrow=classic;html=1;exitX=0.5;exitY=1;exitDx=0;exitDy=0;" parent="1" source="3" edge="1">
                    <mxGeometry width="50" height="50" relative="1" as="geometry">
                        <mxPoint x="540" y="760" as="sourcePoint"/>
                        <mxPoint x="750" y="790" as="targetPoint"/>
                    </mxGeometry>
                </mxCell>
                <mxCell id="9" value="W.fire" style="edgeLabel;html=1;align=center;verticalAlign=middle;resizable=0;points=[];" parent="6" vertex="1" connectable="0">
                    <mxGeometry x="0.075" y="-1" relative="1" as="geometry">
                        <mxPoint as="offset"/>
                    </mxGeometry>
                </mxCell>
                <mxCell id="7" value="BURST" style="ellipse;whiteSpace=wrap;html=1;aspect=fixed;" parent="1" vertex="1">
                    <mxGeometry x="710" y="790" width="80" height="80" as="geometry"/>
                </mxCell>
                <mxCell id="11" value="" style="endArrow=classic;html=1;exitX=0;exitY=0.5;exitDx=0;exitDy=0;entryX=1;entryY=0.5;entryDx=0;entryDy=0;" parent="1" source="7" target="34" edge="1">
                    <mxGeometry width="50" height="50" relative="1" as="geometry">
                        <mxPoint x="320" y="790" as="sourcePoint"/>
                        <mxPoint x="460" y="850" as="targetPoint"/>
                    </mxGeometry>
                </mxCell>
                <mxCell id="13" value="burst done" style="edgeLabel;html=1;align=center;verticalAlign=middle;resizable=0;points=[];" parent="11" vertex="1" connectable="0">
                    <mxGeometry x="0.0095" y="1" relative="1" as="geometry">
                        <mxPoint as="offset"/>
                    </mxGeometry>
                </mxCell>
                <mxCell id="17" value="" style="endArrow=classic;html=1;exitX=0.5;exitY=0;exitDx=0;exitDy=0;entryX=0.5;entryY=1;entryDx=0;entryDy=0;" edge="1" parent="1" source="34" target="2">
                    <mxGeometry width="50" height="50" relative="1" as="geometry">
                        <mxPoint x="400" y="1190" as="sourcePoint"/>
                        <mxPoint x="710" y="990" as="targetPoint"/>
                    </mxGeometry>
                </mxCell>
                <mxCell id="37" value="B.fire &amp;amp; OKAY" style="edgeLabel;html=1;align=center;verticalAlign=middle;resizable=0;points=[];" vertex="1" connectable="0" parent="17">
                    <mxGeometry x="-0.025" relative="1" as="geometry">
                        <mxPoint as="offset"/>
                    </mxGeometry>
                </mxCell>
                <mxCell id="34" value="B_READY" style="ellipse;whiteSpace=wrap;html=1;aspect=fixed;" vertex="1" parent="1">
                    <mxGeometry x="390" y="790" width="80" height="80" as="geometry"/>
                </mxCell>
                <mxCell id="35" value="" style="endArrow=classic;html=1;exitX=1;exitY=1;exitDx=0;exitDy=0;entryX=0;entryY=0;entryDx=0;entryDy=0;" edge="1" parent="1" source="2" target="7">
                    <mxGeometry width="50" height="50" relative="1" as="geometry">
                        <mxPoint x="570" y="710" as="sourcePoint"/>
                        <mxPoint x="620" y="660" as="targetPoint"/>
                    </mxGeometry>
                </mxCell>
                <mxCell id="36" value="AW.fire &amp;amp;&amp;amp; W.fire" style="edgeLabel;html=1;align=center;verticalAlign=middle;resizable=0;points=[];" vertex="1" connectable="0" parent="35">
                    <mxGeometry x="-0.0311" relative="1" as="geometry">
                        <mxPoint as="offset"/>
                    </mxGeometry>
                </mxCell>
                <mxCell id="52" value="&lt;font style=&quot;font-size: 30px;&quot;&gt;AXI Node&lt;/font&gt;" style="text;html=1;strokeColor=none;fillColor=none;align=center;verticalAlign=middle;whiteSpace=wrap;rounded=0;" vertex="1" parent="1">
                    <mxGeometry x="487.5" y="-280" width="185" height="70" as="geometry"/>
                </mxCell>
                <mxCell id="53" value="" style="endArrow=none;dashed=1;html=1;dashPattern=1 3;strokeWidth=2;fontSize=30;" edge="1" parent="1">
                    <mxGeometry width="50" height="50" relative="1" as="geometry">
                        <mxPoint x="-40" y="995" as="sourcePoint"/>
                        <mxPoint x="-40" y="235" as="targetPoint"/>
                    </mxGeometry>
                </mxCell>
                <mxCell id="54" value="&lt;span style=&quot;font-size: 12px;&quot;&gt;def AXI_write_request():Bool = {}&lt;/span&gt;" style="text;html=1;strokeColor=none;fillColor=none;align=center;verticalAlign=middle;whiteSpace=wrap;rounded=0;fontSize=30;" vertex="1" parent="1">
                    <mxGeometry x="-240" y="590" width="210" height="30" as="geometry"/>
                </mxCell>
                <mxCell id="56" value="" style="group;fontSize=12;" vertex="1" connectable="0" parent="1">
                    <mxGeometry x="120" y="610" width="120" height="80" as="geometry"/>
                </mxCell>
                <mxCell id="57" value="" style="endArrow=none;html=1;labelBackgroundColor=#282C34;strokeColor=#E05561;fontSize=17;rounded=0;" edge="1" parent="56">
                    <mxGeometry width="50" height="50" relative="1" as="geometry">
                        <mxPoint x="-40" y="80" as="sourcePoint"/>
                        <mxPoint x="-40" as="targetPoint"/>
                        <Array as="points">
                            <mxPoint x="60" y="80"/>
                            <mxPoint x="60"/>
                        </Array>
                    </mxGeometry>
                </mxCell>
                <mxCell id="58" value="" style="rounded=0;whiteSpace=wrap;html=1;labelBackgroundColor=none;strokeColor=#e05561;fontSize=17;fillColor=#21252B;" vertex="1" parent="56">
                    <mxGeometry x="40" width="20" height="80" as="geometry"/>
                </mxCell>
                <mxCell id="59" value="" style="rounded=0;whiteSpace=wrap;html=1;labelBackgroundColor=none;strokeColor=#e05561;fontSize=17;fillColor=#21252B;" vertex="1" parent="56">
                    <mxGeometry x="20" width="20" height="80" as="geometry"/>
                </mxCell>
                <mxCell id="60" value="" style="rounded=0;whiteSpace=wrap;html=1;labelBackgroundColor=none;strokeColor=#e05561;fontSize=17;fillColor=#21252B;" vertex="1" parent="56">
                    <mxGeometry width="20" height="80" as="geometry"/>
                </mxCell>
                <mxCell id="61" value="" style="endArrow=classic;html=1;rounded=0;labelBackgroundColor=#282C34;strokeColor=#A5E075;fontSize=17;exitX=1;exitY=0.5;exitDx=0;exitDy=0;" edge="1" parent="56" source="58">
                    <mxGeometry width="50" height="50" relative="1" as="geometry">
                        <mxPoint x="80" y="40" as="sourcePoint"/>
                        <mxPoint x="120" y="40" as="targetPoint"/>
                    </mxGeometry>
                </mxCell>
                <mxCell id="69" value="AXI Node API" style="text;html=1;strokeColor=none;fillColor=none;align=center;verticalAlign=middle;whiteSpace=wrap;rounded=0;fontSize=12;" vertex="1" parent="1">
                    <mxGeometry x="-195" y="480" width="120" height="30" as="geometry"/>
                </mxCell>
                <mxCell id="71" value="AXI request queue" style="text;html=1;strokeColor=none;fillColor=none;align=center;verticalAlign=middle;whiteSpace=wrap;rounded=0;fontSize=12;" vertex="1" parent="1">
                    <mxGeometry x="70" y="560" width="120" height="30" as="geometry"/>
                </mxCell>
                <mxCell id="74" value="&lt;span style=&quot;font-size: 12px;&quot;&gt;def AXI_read_request():Bool = {}&lt;/span&gt;" style="text;html=1;strokeColor=none;fillColor=none;align=center;verticalAlign=middle;whiteSpace=wrap;rounded=0;fontSize=30;" vertex="1" parent="1">
                    <mxGeometry x="-240" y="670" width="210" height="30" as="geometry"/>
                </mxCell>
                <mxCell id="77" value="" style="endArrow=classic;html=1;fontSize=12;" edge="1" parent="1">
                    <mxGeometry width="50" height="50" relative="1" as="geometry">
                        <mxPoint x="-10" y="610" as="sourcePoint"/>
                        <mxPoint x="90" y="650" as="targetPoint"/>
                        <Array as="points">
                            <mxPoint x="30" y="610"/>
                            <mxPoint x="30" y="650"/>
                        </Array>
                    </mxGeometry>
                </mxCell>
                <mxCell id="78" value="" style="endArrow=classic;html=1;fontSize=12;" edge="1" parent="1">
                    <mxGeometry width="50" height="50" relative="1" as="geometry">
                        <mxPoint x="-10" y="690" as="sourcePoint"/>
                        <mxPoint x="90" y="650" as="targetPoint"/>
                        <Array as="points">
                            <mxPoint x="30" y="690"/>
                            <mxPoint x="30" y="650"/>
                        </Array>
                    </mxGeometry>
                </mxCell>
                <mxCell id="79" value="" style="endArrow=none;dashed=1;html=1;dashPattern=1 3;strokeWidth=2;fontSize=30;" edge="1" parent="1">
                    <mxGeometry width="50" height="50" relative="1" as="geometry">
                        <mxPoint x="1020" y="1000" as="sourcePoint"/>
                        <mxPoint x="1020" y="240" as="targetPoint"/>
                    </mxGeometry>
                </mxCell>
                <mxCell id="98" value="R_READY" style="ellipse;whiteSpace=wrap;html=1;aspect=fixed;" vertex="1" parent="1">
                    <mxGeometry x="390" y="320" width="80" height="80" as="geometry"/>
                </mxCell>
                <mxCell id="99" value="ar.fire" style="endArrow=classic;html=1;fontSize=12;exitX=0;exitY=0;exitDx=0;exitDy=0;entryX=0;entryY=1;entryDx=0;entryDy=0;" edge="1" parent="1" source="2" target="98">
                    <mxGeometry width="50" height="50" relative="1" as="geometry">
                        <mxPoint x="540" y="310" as="sourcePoint"/>
                        <mxPoint x="590" y="260" as="targetPoint"/>
                    </mxGeometry>
                </mxCell>
                <mxCell id="100" value="" style="endArrow=classic;html=1;fontSize=12;exitX=1;exitY=1;exitDx=0;exitDy=0;entryX=1;entryY=0;entryDx=0;entryDy=0;" edge="1" parent="1" source="98" target="2">
                    <mxGeometry width="50" height="50" relative="1" as="geometry">
                        <mxPoint x="520" y="490" as="sourcePoint"/>
                        <mxPoint x="570" y="440" as="targetPoint"/>
                    </mxGeometry>
                </mxCell>
                <mxCell id="101" value="Last" style="edgeLabel;html=1;align=center;verticalAlign=middle;resizable=0;points=[];fontSize=12;" vertex="1" connectable="0" parent="100">
                    <mxGeometry x="-0.1132" relative="1" as="geometry">
                        <mxPoint as="offset"/>
                    </mxGeometry>
                </mxCell>
                <mxCell id="102" value="" style="endArrow=classic;html=1;fontSize=12;" edge="1" parent="1">
                    <mxGeometry width="50" height="50" relative="1" as="geometry">
                        <mxPoint x="970" y="710" as="sourcePoint"/>
                        <mxPoint x="1090" y="710" as="targetPoint"/>
                    </mxGeometry>
                </mxCell>
                <mxCell id="103" value="AXI" style="edgeLabel;html=1;align=center;verticalAlign=middle;resizable=0;points=[];fontSize=12;" vertex="1" connectable="0" parent="102">
                    <mxGeometry x="-0.2222" y="1" relative="1" as="geometry">
                        <mxPoint as="offset"/>
                    </mxGeometry>
                </mxCell>
                <mxCell id="104" value="" style="group;fontSize=12;rotation=-180;" vertex="1" connectable="0" parent="1">
                    <mxGeometry x="30" y="810" width="120" height="80" as="geometry"/>
                </mxCell>
                <mxCell id="105" value="" style="endArrow=none;html=1;labelBackgroundColor=#282C34;strokeColor=#E05561;fontSize=17;rounded=0;" edge="1" parent="104">
                    <mxGeometry width="50" height="50" relative="1" as="geometry">
                        <mxPoint x="160" as="sourcePoint"/>
                        <mxPoint x="160" y="80" as="targetPoint"/>
                        <Array as="points">
                            <mxPoint x="60"/>
                            <mxPoint x="60" y="80"/>
                        </Array>
                    </mxGeometry>
                </mxCell>
                <mxCell id="106" value="" style="rounded=0;whiteSpace=wrap;html=1;labelBackgroundColor=none;strokeColor=#e05561;fontSize=17;fillColor=#21252B;rotation=-180;" vertex="1" parent="104">
                    <mxGeometry x="60" width="20" height="80" as="geometry"/>
                </mxCell>
                <mxCell id="107" value="" style="rounded=0;whiteSpace=wrap;html=1;labelBackgroundColor=none;strokeColor=#e05561;fontSize=17;fillColor=#21252B;rotation=-180;" vertex="1" parent="104">
                    <mxGeometry x="80" width="20" height="80" as="geometry"/>
                </mxCell>
                <mxCell id="108" value="" style="rounded=0;whiteSpace=wrap;html=1;labelBackgroundColor=none;strokeColor=#e05561;fontSize=17;fillColor=#21252B;rotation=-180;" vertex="1" parent="104">
                    <mxGeometry x="100" width="20" height="80" as="geometry"/>
                </mxCell>
                <mxCell id="109" value="" style="endArrow=classic;html=1;rounded=0;labelBackgroundColor=#282C34;strokeColor=#A5E075;fontSize=17;exitX=1;exitY=0.5;exitDx=0;exitDy=0;" edge="1" parent="104" source="106">
                    <mxGeometry width="50" height="50" relative="1" as="geometry">
                        <mxPoint x="40" y="40" as="sourcePoint"/>
                        <mxPoint y="40" as="targetPoint"/>
                    </mxGeometry>
                </mxCell>
                <mxCell id="110" value="AXI response queue" style="text;html=1;strokeColor=none;fillColor=none;align=center;verticalAlign=middle;whiteSpace=wrap;rounded=0;fontSize=12;" vertex="1" parent="1">
                    <mxGeometry x="70" y="760" width="120" height="30" as="geometry"/>
                </mxCell>
                <mxCell id="111" value="&lt;span style=&quot;font-size: 12px;&quot;&gt;def AXI_read():Bool = {}&lt;/span&gt;" style="text;html=1;strokeColor=none;fillColor=none;align=center;verticalAlign=middle;whiteSpace=wrap;rounded=0;fontSize=30;" vertex="1" parent="1">
                    <mxGeometry x="-180" y="835" width="140" height="30" as="geometry"/>
                </mxCell>
                <mxCell id="112" value="" style="endArrow=classic;html=1;fontSize=12;" edge="1" parent="1">
                    <mxGeometry width="50" height="50" relative="1" as="geometry">
                        <mxPoint x="330" y="849.41" as="sourcePoint"/>
                        <mxPoint x="200" y="849.41" as="targetPoint"/>
                    </mxGeometry>
                </mxCell>
            </root>
        </mxGraphModel>
    </diagram>
</mxfile>